<svg xmlns="http://www.w3.org/2000/svg" viewBox="0 0 700 108"><g fill="#edecef"><path d="M32.66,12.58,60.78,82.77,88.91,12.58h14.71v86H92.28V65.1l1.06-36.16L65.1,98.6H56.41L28.23,29.12l1.12,36V98.6H18v-86Z"/><path d="M119,66a37.75,37.75,0,0,1,3.69-16.89A27.57,27.57,0,0,1,133,37.57a28,28,0,0,1,15-4.08q13,0,21.12,9t8.07,24v.77a38.09,38.09,0,0,1-3.58,16.74,27.13,27.13,0,0,1-10.22,11.56,28.35,28.35,0,0,1-15.27,4.13q-13,0-21.06-9T119,66.81Zm11,1.31Q130,78,135,84.42a16.72,16.72,0,0,0,26.44-.09q4.9-6.52,4.91-18.29,0-10.5-5-17a15.88,15.88,0,0,0-13.26-6.53A15.71,15.71,0,0,0,135,48.91Q130,55.36,130,67.35Z"/><path d="M188.28,66.1q0-14.7,7-23.66a22,22,0,0,1,18.25-8.95q11.24,0,17.79,7.68V7.85h10.93V98.6h-10l-.53-6.85q-6.56,8-18.26,8-11.1,0-18.1-9.1t-7-23.75Zm10.93,1.25q0,10.86,4.49,17a14.52,14.52,0,0,0,12.41,6.15q10.39,0,15.19-9.34V51.81q-4.91-9-15.07-9A14.58,14.58,0,0,0,203.7,49Q199.22,55.18,199.21,67.35Z"/><path d="M285.71,99.78q-13,0-21.15-8.54t-8.15-22.83v-2a38.44,38.44,0,0,1,3.63-17A28.29,28.29,0,0,1,270.2,37.72a25.52,25.52,0,0,1,14.15-4.23q12.47,0,19.38,8.21t6.91,23.52v4.55h-43.3q.23,9.45,5.52,15.27a17.38,17.38,0,0,0,13.44,5.82,19.1,19.1,0,0,0,9.81-2.36,24.72,24.72,0,0,0,7-6.27l6.68,5.2Q301.78,99.79,285.71,99.78Zm-1.36-57.31a14.6,14.6,0,0,0-11.11,4.82q-4.49,4.82-5.55,13.5h32V60q-.46-8.33-4.49-12.91A13.73,13.73,0,0,0,284.35,42.47Z"/><path d="M360.51,81.64a8,8,0,0,0-3.34-6.88c-2.22-1.63-6.11-3-11.64-4.22a55.14,55.14,0,0,1-13.17-4.26,18.62,18.62,0,0,1-7.21-5.91,14.09,14.09,0,0,1-2.34-8.15q0-7.86,6.65-13.29t17-5.44q10.86,0,17.63,5.61a17.85,17.85,0,0,1,6.77,14.36h-11a9.88,9.88,0,0,0-3.81-7.74,14.31,14.31,0,0,0-9.6-3.25q-6,0-9.34,2.6a8.2,8.2,0,0,0-3.37,6.8,6.63,6.63,0,0,0,3.14,6q3.12,2,11.31,3.84A58.84,58.84,0,0,1,361.45,66,19.49,19.49,0,0,1,369,72.16a15.06,15.06,0,0,1,2.45,8.71,16.37,16.37,0,0,1-6.85,13.74q-6.85,5.17-17.79,5.17a32.23,32.23,0,0,1-13.59-2.72A22,22,0,0,1,324,89.47a18.25,18.25,0,0,1-3.34-10.54h10.93a11.29,11.29,0,0,0,4.4,8.71q4.11,3.23,10.84,3.22c4.14,0,7.45-.84,10-2.51A7.73,7.73,0,0,0,360.51,81.64Z"/><path d="M400.51,19.19V34.67h11.93v8.45H400.51v39.7q0,3.84,1.59,5.76c1.07,1.28,2.88,1.93,5.44,1.93a26.74,26.74,0,0,0,5.2-.71v8.81a32,32,0,0,1-8.39,1.17q-7.34,0-11.05-4.43t-3.72-12.58V43.12H377.94V34.67h11.64V19.19Z"/></g><g fill="#714abf"><path d="M457.28,65.51H440.62V98.6H425.68v-86h30.25q14.88,0,23,6.68T487,38.59q0,8.64-4.16,14.46a26.57,26.57,0,0,1-11.61,9l19.32,35.82v.77h-16ZM440.62,53.46H456c5,0,9-1.27,11.82-3.81s4.25-6,4.25-10.43q0-6.91-3.92-10.69t-11.73-3.9H440.62Z"/><path d="M528,99.78q-13.65,0-22.13-8.6t-8.48-22.89V66.52A38.43,38.43,0,0,1,501,49.41,28.12,28.12,0,0,1,511.4,37.69a27.4,27.4,0,0,1,14.89-4.2q13.07,0,20.18,8.33t7.12,23.58v5.79H511.82q.65,7.91,5.29,12.52a15.87,15.87,0,0,0,11.66,4.61,19.43,19.43,0,0,0,16.07-8l7.74,7.39a25.82,25.82,0,0,1-10.25,8.89A32,32,0,0,1,528,99.78ZM526.23,45a12.08,12.08,0,0,0-9.54,4.14q-3.63,4.14-4.64,11.52h27.36V59.61q-.48-7.22-3.84-10.9T526.23,45Z"/><path d="M602.92,98.6a22.08,22.08,0,0,1-1.65-6,22.33,22.33,0,0,1-16.78,7.15q-9.63,0-15.72-5.49a17.59,17.59,0,0,1-6.08-13.59q0-10.23,7.59-15.69T592,59.55h8.8v-4.2A11.17,11.17,0,0,0,598,47.41q-2.78-3-8.45-3a12.69,12.69,0,0,0-8,2.45,7.63,7.63,0,0,0-3.13,6.24H564a16,16,0,0,1,3.49-9.84A23.24,23.24,0,0,1,577,36.09a33.38,33.38,0,0,1,13.39-2.6q11.22,0,17.9,5.64T615.15,55V83.83q0,8.63,2.42,13.77v1ZM587.15,88.26a16.31,16.31,0,0,0,8-2.07,13.84,13.84,0,0,0,5.64-5.55v-12h-7.74q-8,0-12,2.77a9,9,0,0,0-4,7.86,8.41,8.41,0,0,0,2.75,6.59A10.66,10.66,0,0,0,587.15,88.26Z"/><path d="M627.5,66.16q0-14.76,6.85-23.72a22,22,0,0,1,18.38-8.95q10.15,0,16.42,7.09V7.85h14.36V98.6h-13L669.8,92q-6.43,7.8-17.19,7.8a21.83,21.83,0,0,1-18.17-9Q627.49,81.69,627.5,66.16Zm14.36,1.24q0,9.75,3.75,15.22a12.17,12.17,0,0,0,10.66,5.46,13.56,13.56,0,0,0,12.88-7.86V52.93q-4-7.68-12.76-7.68a12.26,12.26,0,0,0-10.75,5.52Q641.86,56.31,641.86,67.4Z"/></g></svg>
