<svg xmlns="http://www.w3.org/2000/svg" viewBox="0 0 512 512"><circle fill="#714abf" cx="256" cy="256" r="251"/><g fill="#232225"><path class="cls-1" d="M399.64,204.24c-1.36-10.19-1.55-27.73,7.91-33.63a2.73,2.73,0,0,0,.44-.39c7.74-2.48,13.09-5.95,8.89-10.62l-114.1-34.38L118,150.91s-21.16,3-19.27,35.89c1,17.89,6.64,26.68,11.55,31l-15.16,4.57C90.93,227,96.28,230.51,104,233a2.38,2.38,0,0,0,.44.4c9.45,5.9,9.27,23.44,7.91,33.63-34,9.65-21.77,12.79-21.77,12.79l7.45,1.8c-5.24,4.74-10.45,13.72-9.47,30.75,1.89,32.87,19.27,35.13,19.27,35.13l120.9,39.3,182.49-44.2s12.2-3.15-21.78-12.79c-1.36-10.18-1.55-27.72,7.92-33.63a2.8,2.8,0,0,0,.45-.39c7.73-2.48,13.08-5.95,8.88-10.62l-7.94-2.39c5.29-3.19,13.24-11.53,14.49-33.19.85-14.89-3-23.62-7.53-28.75l15.68-3.8S433.61,213.88,399.64,204.24ZM247,203.81l30.69-6.3L381.39,176.2,396.84,173c-4.94,9-4.73,21.4-3.91,29.35.18,1.8.38,3.44.58,4.69l-16.91,4.2L245.7,243.82Zm-131.82,32L130.62,239l99.6,20.47,8.7,1.78h0L265,266.59l1.29,40L131.76,273.13l-13.26-3.29c.2-1.25.4-2.89.59-4.7C119.9,257.2,120.11,244.83,115.17,235.8Zm-6-50.58c-.19-8.75,1.37-15.07,4.52-18.28a8.21,8.21,0,0,1,6-2.48,10.25,10.25,0,0,1,1.52.12l79.6,25.95,39.72,12.95-1.3,40.29L127.79,212.53l-5.88-1.65a3.47,3.47,0,0,0-.73-.11C120.72,210.74,109.7,209.72,109.17,185.22ZM229,369.33l-117.3-32.89a4.63,4.63,0,0,0-.73-.12c-.47,0-11.49-1-12-25.54-.19-8.75,1.37-15.07,4.52-18.29a8.21,8.21,0,0,1,6-2.48,10.25,10.25,0,0,1,1.52.12h0L230.33,329Zm153.7-41.41c.19,1.8.4,3.44.6,4.69L235.52,369.38l1.3-40,31.6-6.49,4.66,1.13,17.5-5.69,80.63-16.57,15.45-3.18C381.72,307.61,381.93,320,382.74,327.92Zm8.15-54.38a3,3,0,0,0-.79.13L379,276.79,272.8,306.55l-1.3-40.29,34.83-11.36,84.32-27.5a8.8,8.8,0,0,1,7.69,2.32c3.14,3.21,4.7,9.53,4.52,18.28C402.31,272.5,391.29,273.51,390.89,273.54Z"/></g></svg>
