<svg xmlns="http://www.w3.org/2000/svg" viewBox="0 0 938 176"><g fill="#edecef"><path fill="#714abf" d="M197.86,56.34c-.83-6.24-.94-17,4.84-20.57a2.2,2.2,0,0,0,.28-.24c4.73-1.52,8-3.64,5.43-6.5L138.61,8,25.6,23.71s-12.94,1.85-11.79,22c.63,10.94,4.06,16.32,7.06,19l-9.27,2.8c-2.58,2.86.7,5,5.43,6.49a2.11,2.11,0,0,0,.27.25c5.79,3.6,5.67,14.33,4.84,20.57-20.78,5.9-13.32,7.82-13.32,7.82l4.56,1.1c-3.21,2.9-6.39,8.39-5.79,18.81C8.74,142.57,19.37,144,19.37,144l74,24L205,141s7.46-1.92-13.32-7.82c-.84-6.23-.95-17,4.85-20.57a3.08,3.08,0,0,0,.27-.24c4.73-1.52,8-3.64,5.43-6.5l-4.85-1.46c3.23-2,8.09-7.05,8.85-20.3.53-9.11-1.85-14.45-4.6-17.59l9.59-2.32S218.64,62.24,197.86,56.34Zm-93.37-.26,18.77-3.86,63.44-13,9.45-1.94c-3,5.53-2.89,13.09-2.39,17.95.11,1.1.24,2.11.36,2.87l-10.35,2.57L103.7,80.55ZM23.85,75.64l9.45,2L94.23,90.11l5.32,1.09h0l16,3.28L116.3,119,34,98.48l-8.11-2c.12-.76.25-1.76.36-2.87C26.75,88.74,26.88,81.17,23.85,75.64ZM20.18,44.7c-.11-5.35.84-9.21,2.77-11.18A5,5,0,0,1,26.61,32a5.7,5.7,0,0,1,.93.08L76.24,48l24.29,7.92-.8,24.65L31.58,61.41l-3.6-1a2.22,2.22,0,0,0-.45-.07C27.25,60.31,20.51,59.69,20.18,44.7ZM93.51,157.32,21.76,137.21a1.76,1.76,0,0,0-.45-.07c-.29,0-7-.64-7.36-15.63-.11-5.36.85-9.22,2.77-11.19a5,5,0,0,1,3.66-1.51,6.32,6.32,0,0,1,.93.07h0l73,23.8Zm94-25.33c.11,1.11.24,2.11.36,2.87l-90.42,22.5.79-24.48,19.34-4,2.85.69,10.7-3.48L180.47,116l9.46-1.95C186.9,119.57,187,127.14,187.53,132Zm5-33.26a1.93,1.93,0,0,0-.48.08l-6.82,1.91-64.93,18.2-.8-24.64,21.31-7,51.58-16.82a5.34,5.34,0,0,1,4.7,1.41c1.92,2,2.88,5.84,2.76,11.18C199.5,98.09,192.76,98.71,192.51,98.73Z"/><path d="M269.22,35l28.13,70.19L325.47,35h14.71v86H328.84V87.55l1.06-36.16-28.24,69.66H293L264.79,51.57l1.12,36v33.5H254.57V35Z"/><path d="M355.6,88.49a37.75,37.75,0,0,1,3.69-16.89A27.52,27.52,0,0,1,369.57,60a28,28,0,0,1,15-4.08q13,0,21.12,9t8.07,24v.77a38,38,0,0,1-3.58,16.75A27.1,27.1,0,0,1,400,118.09a28.27,28.27,0,0,1-15.27,4.14q-13,0-21.06-9T355.6,89.26Zm11,1.3q0,10.63,4.93,17.08a16.72,16.72,0,0,0,26.44-.09q4.91-6.52,4.91-18.29,0-10.51-5-17a15.87,15.87,0,0,0-13.26-6.53,15.71,15.71,0,0,0-13.06,6.44Q366.59,77.8,366.59,89.79Z"/><path d="M424.85,88.55q0-14.72,7-23.66a22,22,0,0,1,18.25-9q11.24,0,17.79,7.68V30.3h10.93v90.75H468.74l-.53-6.86q-6.56,8-18.25,8-11.11,0-18.11-9.1t-7-23.75Zm10.93,1.24q0,10.88,4.49,17a14.51,14.51,0,0,0,12.4,6.14q10.4,0,15.19-9.33V74.25q-4.91-9-15.07-9a14.56,14.56,0,0,0-12.52,6.21Q435.77,77.61,435.78,89.79Z"/><path d="M522.27,122.23q-13,0-21.15-8.54T493,90.86v-2a38.41,38.41,0,0,1,3.63-17,28.38,28.38,0,0,1,10.16-11.7,25.59,25.59,0,0,1,14.15-4.22q12.47,0,19.38,8.21t6.92,23.52v4.54H503.9q.24,9.47,5.52,15.28a17.38,17.38,0,0,0,13.44,5.82,19,19,0,0,0,9.81-2.37,24.54,24.54,0,0,0,7-6.26l6.68,5.2Q538.34,122.23,522.27,122.23Zm-1.36-57.31a14.56,14.56,0,0,0-11.1,4.81q-4.5,4.81-5.56,13.5h32v-.82q-.46-8.34-4.49-12.91T520.91,64.92Z"/><path d="M597.07,104.09a8,8,0,0,0-3.34-6.88Q590.4,94.75,582.09,93a55.18,55.18,0,0,1-13.17-4.25,18.78,18.78,0,0,1-7.21-5.91,14.08,14.08,0,0,1-2.33-8.15q0-7.86,6.64-13.3t17-5.43q10.88,0,17.63,5.61a17.83,17.83,0,0,1,6.77,14.36h-11a9.85,9.85,0,0,0-3.81-7.74,14.26,14.26,0,0,0-9.6-3.25q-6,0-9.34,2.6a8.19,8.19,0,0,0-3.36,6.79,6.63,6.63,0,0,0,3.13,6c2.08,1.34,5.86,2.62,11.31,3.84A59.12,59.12,0,0,1,598,88.49a19.43,19.43,0,0,1,7.53,6.12,15.06,15.06,0,0,1,2.45,8.71,16.37,16.37,0,0,1-6.85,13.74q-6.85,5.18-17.79,5.17a32.23,32.23,0,0,1-13.59-2.72,22,22,0,0,1-9.24-7.59,18.28,18.28,0,0,1-3.34-10.55h10.93a11.34,11.34,0,0,0,4.4,8.72q4.11,3.21,10.84,3.22,6.21,0,10-2.51A7.73,7.73,0,0,0,597.07,104.09Z"/><path d="M637.07,41.64V57.12H649v8.45H637.07v39.69q0,3.85,1.59,5.77T644.1,113a26,26,0,0,0,5.2-.71v8.81a31.61,31.61,0,0,1-8.39,1.18q-7.33,0-11-4.43t-3.72-12.59V65.57H614.5V57.12h11.64V41.64Z"/></g><g fill="#714abf"><path d="M693.85,88H677.18v33.09H662.24V35h30.25q14.88,0,23,6.68T723.56,61q0,8.64-4.16,14.46a26.57,26.57,0,0,1-11.61,9l19.32,35.82v.77h-16Zm-16.67-12h15.37q7.56,0,11.81-3.81t4.26-10.43q0-6.91-3.93-10.69T693,47.08H677.18Z"/><path d="M764.51,122.23q-13.65,0-22.13-8.6T733.9,90.74V89a38.23,38.23,0,0,1,3.7-17.1A28.12,28.12,0,0,1,748,60.13a27.5,27.5,0,0,1,14.89-4.19q13.06,0,20.18,8.33t7.12,23.57v5.79H748.38q.64,7.92,5.29,12.53a15.88,15.88,0,0,0,11.67,4.61,19.45,19.45,0,0,0,16.07-8l7.73,7.39a25.82,25.82,0,0,1-10.25,8.89A32.14,32.14,0,0,1,764.51,122.23Zm-1.72-54.77a12.09,12.09,0,0,0-9.54,4.14q-3.63,4.13-4.64,11.52H776V82.05q-.48-7.2-3.84-10.9T762.79,67.46Z"/><path d="M839.48,121.05a22.08,22.08,0,0,1-1.65-6,22.33,22.33,0,0,1-16.78,7.15q-9.63,0-15.72-5.5a17.59,17.59,0,0,1-6.08-13.59q0-10.22,7.59-15.68T828.55,82h8.81V77.8a11.21,11.21,0,0,0-2.78-8q-2.77-3-8.45-3a12.69,12.69,0,0,0-8,2.45A7.6,7.6,0,0,0,815,75.55H800.61a15.94,15.94,0,0,1,3.48-9.83,23.22,23.22,0,0,1,9.48-7.18A33.38,33.38,0,0,1,827,55.94q11.22,0,17.9,5.64t6.85,15.86v28.84q0,8.63,2.43,13.76v1Zm-15.77-10.34a16.31,16.31,0,0,0,8-2.07,13.92,13.92,0,0,0,5.65-5.55V91h-7.74q-8,0-12,2.78a9,9,0,0,0-4,7.86,8.41,8.41,0,0,0,2.75,6.59A10.67,10.67,0,0,0,823.71,110.71Z"/><path d="M864.06,88.61q0-14.77,6.85-23.72a22,22,0,0,1,18.38-9q10.15,0,16.42,7.09V30.3h14.36v90.75h-13l-.71-6.62q-6.43,7.8-17.19,7.8a21.86,21.86,0,0,1-18.17-9Q864.06,104.15,864.06,88.61Zm14.36,1.24q0,9.75,3.75,15.21a12.16,12.16,0,0,0,10.66,5.47,13.55,13.55,0,0,0,12.88-7.86V75.38q-4-7.68-12.76-7.69a12.27,12.27,0,0,0-10.75,5.53Q878.42,78.74,878.42,89.85Z"/></g></svg>
